<svg id="Ebene_1" data-name="Ebene 1" xmlns="http://www.w3.org/2000/svg" xmlns:xlink="http://www.w3.org/1999/xlink" viewBox="0 0 256 182"><defs><style>.cls-1{fill:#313c45;}.cls-2{fill-opacity:0.15;fill:url(#Unbenannter_Verlauf_10);}.cls-3,.cls-6{fill:#fff;}.cls-4{fill:#717a81;}.cls-5{fill:#2e97de;}.cls-6{fill-opacity:0.18;}</style><linearGradient id="Unbenannter_Verlauf_10" x1="128" y1="106" x2="128" gradientUnits="userSpaceOnUse"><stop offset="0" stop-color="#fff"/><stop offset="0.09" stop-color="#f7f7f7" stop-opacity="0.97"/><stop offset="0.22" stop-color="#e3e3e3" stop-opacity="0.89"/><stop offset="0.38" stop-color="silver" stop-opacity="0.75"/><stop offset="0.56" stop-color="#919191" stop-opacity="0.57"/><stop offset="0.76" stop-color="#545454" stop-opacity="0.33"/><stop offset="0.97" stop-color="#0b0b0b" stop-opacity="0.04"/><stop offset="1" stop-opacity="0"/></linearGradient></defs><title>icon_hover_destination_BG</title><rect class="cls-1" width="256" height="52"/><rect class="cls-1" y="54" width="256" height="52"/><rect class="cls-2" width="256" height="106"/><rect class="cls-3" y="106" width="256" height="52"/><ellipse class="cls-1" cx="82" cy="177.53" rx="12" ry="4.47"/><rect class="cls-4" y="52" width="256" height="2"/><polygon class="cls-5" points="165 158 99.03 158 81.97 177 66.06 158 0 158 0 106 146 106 165 158"/><circle class="cls-6" cx="127" cy="53" r="25"/><path class="cls-3" d="M123,62a1,1,0,0,1-.74-1.77L129.5,53l-7.2-7.23a1,1,0,0,1,1.47-1.46l7.93,8a1,1,0,0,1,.3.73,1.07,1.07,0,0,1-.3.74l-7.93,8A1,1,0,0,1,123,62Z"/></svg>